<svg xmlns="http://www.w3.org/2000/svg" viewBox="0 0 270 110.19"><defs><style>.cls-1{fill:#ab2328;}.cls-2{fill:#fff;}.cls-3{fill:#fd9e1b;}.cls-4{fill:#1d1d1b;}</style></defs><title>Logo_CSSSPNQL</title><g id="Layer_2" data-name="Layer 2"><g id="_Calque_" data-name="&lt;Calque&gt;"><path d="M125.71,31.77a2.27,2.27,0,0,0-1.34-.45A1.74,1.74,0,0,0,123,32a3.63,3.63,0,0,0-.47,2.1,4.38,4.38,0,0,0,.35,2.18,1.74,1.74,0,0,0,1.61.91,2.16,2.16,0,0,0,1.42-.53l.77,1a3.89,3.89,0,0,1-5-.36,4.2,4.2,0,0,1-1-2.92,5.06,5.06,0,0,1,.57-2.53A3.58,3.58,0,0,1,124.35,30a3.48,3.48,0,0,1,2.11.64Z"/><path d="M134.38,34.22c0,1.84-.65,3.22-1.86,3.87a3.22,3.22,0,0,1-1.67.37,3.1,3.1,0,0,1-2.71-1.15,4.69,4.69,0,0,1-1-3,4.09,4.09,0,0,1,1.88-3.8,3.8,3.8,0,0,1,1.73-.4C133,30.09,134.38,31.67,134.38,34.22Zm-4.91-2.15a4.58,4.58,0,0,0-.42,2.22c0,1.41.24,2.29.75,2.64a1.65,1.65,0,0,0,1,.28c1.17,0,1.66-.87,1.66-2.94a6.21,6.21,0,0,0-.22-1.89,1.49,1.49,0,0,0-1.46-1A1.46,1.46,0,0,0,129.47,32.07Z"/><path d="M138.42,30.19l1.1,4.08c.15.59.21.87.28,1.29.08-.42.17-.85.31-1.33l1.12-4h2.14l.75,8.14h-1.65L142.16,34c0-.52-.06-.93-.06-1.36-.1.47-.17.76-.31,1.25l-1.33,4.45H139l-1.19-4.27c-.11-.4-.25-1-.34-1.44,0,.48,0,1-.06,1.46l-.29,4.25H135.5l.78-8.14Z"/><path d="M148.56,30.19l1.1,4.08c.15.59.21.87.29,1.29a11.24,11.24,0,0,1,.3-1.33l1.12-4h2.14l.75,8.14h-1.65L152.3,34c0-.52-.06-.93-.06-1.36-.1.47-.17.76-.31,1.25l-1.32,4.45h-1.43L148,34.06c-.11-.4-.25-1-.34-1.44,0,.48,0,1-.06,1.46l-.29,4.25h-1.66l.78-8.14Z"/><path d="M157.78,30.19v8.14H156V30.19Z"/><path d="M164.36,31.94a3.63,3.63,0,0,0-2-.62c-.68,0-1.16.38-1.16.93s.23.64.92.83l1,.26a2.47,2.47,0,0,1,2.11,2.43c0,1.65-1.36,2.74-3.44,2.74a6.11,6.11,0,0,1-2.85-.74l.63-1.27a4.9,4.9,0,0,0,2.29.65c1,0,1.47-.39,1.47-1.11,0-.53-.35-.86-1.1-1.06l-.92-.24a2.56,2.56,0,0,1-1.65-1,2.41,2.41,0,0,1-.34-1.24c0-1.49,1.22-2.52,3-2.52a4.92,4.92,0,0,1,2.78.82Z"/><path d="M171.37,31.94a3.65,3.65,0,0,0-2-.62c-.68,0-1.16.38-1.16.93s.22.64.92.83l1,.26a2.47,2.47,0,0,1,2.11,2.43c0,1.65-1.37,2.74-3.44,2.74a6.08,6.08,0,0,1-2.85-.74l.63-1.27a4.9,4.9,0,0,0,2.29.65c1,0,1.46-.39,1.46-1.11,0-.53-.35-.86-1.09-1.06l-.92-.24a2.54,2.54,0,0,1-1.65-1,2.32,2.32,0,0,1-.35-1.24c0-1.49,1.23-2.52,3-2.52a5,5,0,0,1,2.79.82Z"/><path d="M175.57,30.19v8.14h-1.76V30.19Z"/><path d="M184.23,34.22c0,1.84-.65,3.22-1.86,3.87a3.22,3.22,0,0,1-1.67.37A3.09,3.09,0,0,1,178,37.31a4.69,4.69,0,0,1-1-3,4.09,4.09,0,0,1,1.88-3.8,3.8,3.8,0,0,1,1.73-.4C182.86,30.09,184.23,31.67,184.23,34.22Zm-4.91-2.15a4.71,4.71,0,0,0-.42,2.22c0,1.41.24,2.29.75,2.64a1.65,1.65,0,0,0,1,.28c1.17,0,1.66-.87,1.66-2.94a6.21,6.21,0,0,0-.22-1.89,1.49,1.49,0,0,0-1.46-1A1.45,1.45,0,0,0,179.32,32.07Z"/><path d="M187.46,30.19l1.59,3.26a15.86,15.86,0,0,1,.92,2.31c-.06-.64-.12-1.68-.14-2.24l0-3.33h1.59v8.14h-1.75l-1.43-3.11c-.46-1-1-2.17-1.12-2.67.06.66.07,1.63.08,2.31l.05,3.47H185.6V30.19Z"/><path d="M197.79,30.19c.48,0,1.12,0,1.45,0a2.9,2.9,0,0,1,1.83.81,4.22,4.22,0,0,1,1.14,3.24,4.61,4.61,0,0,1-.84,2.83,2.92,2.92,0,0,1-2,1.17c-.31,0-.71,0-1.2,0h-2V30.19Zm0,6.81h.9c1.11,0,1.61-.83,1.61-2.55a4.45,4.45,0,0,0-.42-2.29,1.39,1.39,0,0,0-1.32-.68h-.77Z"/><path d="M208.5,30.19l-.22,1.34h-2.86v1.88h2.39v1.34h-2.36v2.18h3.15v1.4h-4.86V30.19Z"/><path d="M214.59,30.19V37h3l-.3,1.35h-4.41V30.19Z"/><path d="M222.09,30.17l2.63,8.16h-1.8l-.59-1.93h-2.45l-.59,1.93h-1.75l2.74-8.16ZM221.92,35s-.27-.85-.45-1.64c-.09-.37-.34-1.44-.34-1.44s-.24,1-.4,1.57-.26,1-.44,1.51Z"/><path d="M232.89,31.94a3.62,3.62,0,0,0-1.94-.62c-.69,0-1.17.38-1.17.93s.23.64.93.83l1,.26a2.48,2.48,0,0,1,2.11,2.43c0,1.65-1.37,2.74-3.45,2.74a6.07,6.07,0,0,1-2.84-.74l.62-1.27a4.93,4.93,0,0,0,2.3.65c1,0,1.46-.39,1.46-1.11,0-.53-.35-.86-1.09-1.06l-.93-.24a2.51,2.51,0,0,1-1.64-1,2.32,2.32,0,0,1-.35-1.24c0-1.49,1.22-2.52,3-2.52a4.92,4.92,0,0,1,2.78.82Z"/><path d="M238.76,30.17l2.63,8.16h-1.8L239,36.4h-2.45L236,38.33h-1.75L237,30.17ZM238.59,35s-.27-.85-.46-1.64c-.08-.37-.33-1.44-.33-1.44s-.24,1-.4,1.57-.26,1-.44,1.51Z"/><path d="M244.16,30.19l1.6,3.26a15.65,15.65,0,0,1,.91,2.31c-.06-.64-.12-1.68-.13-2.24l0-3.33h1.6v8.14h-1.76l-1.42-3.11c-.47-1-1-2.17-1.13-2.67.06.66.07,1.63.08,2.31l0,3.47H242.3V30.19Z"/><path d="M255.31,30.19,255,31.55h-2v6.78h-1.7V31.55h-2.05V30.19Z"/><path d="M261.08,30.19l-.21,1.34H258v1.88h2.39v1.34H258v2.18h3.16v1.4h-4.86V30.19Zm-.91-1.43-2.69,1.18-.49-.87,2.48-1.52Z"/><path d="M125.91,44.24l-.22,1.34h-2.85v1.88h2.38V48.8h-2.36V51H126v1.4h-4.86V44.24Z"/><path d="M132.79,44.24l-.28,1.36h-2v6.78h-1.71V45.6h-2V44.24Z"/><path d="M138.18,44.24c.49,0,1.12,0,1.46,0a2.86,2.86,0,0,1,1.82.81,4.22,4.22,0,0,1,1.14,3.24,4.55,4.55,0,0,1-.84,2.83,2.86,2.86,0,0,1-2,1.17c-.31,0-.7,0-1.2,0h-2V44.24Zm0,6.81h.9c1.1,0,1.61-.83,1.61-2.55a4.55,4.55,0,0,0-.42-2.29,1.4,1.4,0,0,0-1.32-.68h-.77Z"/><path d="M148.89,44.24l-.22,1.34h-2.85v1.88h2.39V48.8h-2.37V51H149v1.4h-4.86V44.24Z"/><path d="M155.13,46a3.62,3.62,0,0,0-1.94-.62c-.69,0-1.17.39-1.17.94s.23.63.93.82l1,.26a2.48,2.48,0,0,1,2.12,2.43c0,1.65-1.37,2.74-3.45,2.74a6,6,0,0,1-2.84-.74l.62-1.27a4.9,4.9,0,0,0,2.29.65c1,0,1.47-.38,1.47-1.11,0-.53-.35-.86-1.1-1.05l-.92-.25a2.51,2.51,0,0,1-1.64-1,2.32,2.32,0,0,1-.35-1.24c0-1.49,1.22-2.52,3-2.52a4.92,4.92,0,0,1,2.78.82Z"/><path d="M164.84,46a3.63,3.63,0,0,0-2-.62c-.68,0-1.16.39-1.16.94s.23.63.92.82l1,.26a2.47,2.47,0,0,1,2.11,2.43c0,1.65-1.36,2.74-3.44,2.74a6.08,6.08,0,0,1-2.85-.74l.63-1.27a4.9,4.9,0,0,0,2.29.65c1,0,1.47-.38,1.47-1.11,0-.53-.35-.86-1.1-1.05l-.92-.25a2.49,2.49,0,0,1-1.64-1,2.32,2.32,0,0,1-.35-1.24c0-1.49,1.22-2.52,3-2.52a4.92,4.92,0,0,1,2.78.82Z"/><path d="M172,44.24l-.22,1.34H169v1.88h2.4V48.8H169V51h3.16v1.4h-4.86V44.24Z"/><path d="M176.83,44.24a2.29,2.29,0,0,1,2.45,2.39,2.11,2.11,0,0,1-1.87,2.25,1.62,1.62,0,0,1,.35.34c.48.59,2,3.16,2,3.16h-2c-.33-.53-.46-.76-.78-1.33-.83-1.46-1.08-1.86-1.38-2a.77.77,0,0,0-.27-.07v3.39h-1.64V44.24Zm-1.47,3.52h.57c.72,0,1-.07,1.26-.27a1.11,1.11,0,0,0,.32-.82,1,1,0,0,0-.6-1,3.15,3.15,0,0,0-.95-.11h-.6Z"/><path d="M182,44.24l1.39,4.24c.1.37.25.82.38,1.42a15.51,15.51,0,0,1,.48-1.63l1.42-4h1.76l-2.9,8.2H183l-2.83-8.2Z"/><path d="M190.1,44.24v8.14h-1.75V44.24Z"/><path d="M196.66,45.83a2.19,2.19,0,0,0-1.33-.46,1.76,1.76,0,0,0-1.42.7,3.72,3.72,0,0,0-.46,2.1,4.52,4.52,0,0,0,.34,2.18,1.76,1.76,0,0,0,1.61.91,2.18,2.18,0,0,0,1.43-.53l.77,1a3.86,3.86,0,0,1-5-.36,4.15,4.15,0,0,1-1-2.92,5.17,5.17,0,0,1,.56-2.53,3.6,3.6,0,0,1,3.2-1.88,3.53,3.53,0,0,1,2.11.64Z"/><path d="M203.44,44.24l-.21,1.34h-2.86v1.88h2.39V48.8h-2.37V51h3.16v1.4h-4.86V44.24Z"/><path d="M209.68,46a3.6,3.6,0,0,0-1.94-.62c-.69,0-1.17.39-1.17.94s.23.63.93.82l1,.26a2.48,2.48,0,0,1,2.11,2.43c0,1.65-1.37,2.74-3.45,2.74a6.07,6.07,0,0,1-2.84-.74l.62-1.27a4.93,4.93,0,0,0,2.3.65c1,0,1.46-.38,1.46-1.11,0-.53-.35-.86-1.09-1.05l-.92-.25a2.54,2.54,0,0,1-1.65-1,2.32,2.32,0,0,1-.35-1.24c0-1.49,1.23-2.52,3-2.52a5,5,0,0,1,2.79.82Z"/><path d="M219.39,46a3.62,3.62,0,0,0-1.94-.62c-.69,0-1.17.39-1.17.94s.23.63.93.82l1,.26a2.48,2.48,0,0,1,2.11,2.43c0,1.65-1.37,2.74-3.45,2.74a6.07,6.07,0,0,1-2.84-.74l.62-1.27a4.93,4.93,0,0,0,2.3.65c1,0,1.46-.38,1.46-1.11,0-.53-.35-.86-1.09-1.05l-.93-.25a2.51,2.51,0,0,1-1.64-1,2.32,2.32,0,0,1-.35-1.24c0-1.49,1.22-2.52,3-2.52a4.92,4.92,0,0,1,2.78.82Z"/><path d="M228.49,48.27c0,1.84-.65,3.23-1.86,3.87a3.25,3.25,0,0,1-1.67.37,3.11,3.11,0,0,1-2.71-1.14,4.74,4.74,0,0,1-1-3,4.09,4.09,0,0,1,1.88-3.8,3.77,3.77,0,0,1,1.73-.4C227.12,44.14,228.49,45.72,228.49,48.27Zm-4.91-2.15a4.61,4.61,0,0,0-.42,2.22c0,1.41.24,2.29.74,2.64a1.69,1.69,0,0,0,1,.28c1.16,0,1.66-.87,1.66-2.94a6.54,6.54,0,0,0-.22-1.89,1.5,1.5,0,0,0-1.46-1A1.45,1.45,0,0,0,223.58,46.12Z"/><path d="M234.4,45.83a2.19,2.19,0,0,0-1.33-.46,1.74,1.74,0,0,0-1.41.7,3.63,3.63,0,0,0-.47,2.1,4.38,4.38,0,0,0,.35,2.18,1.73,1.73,0,0,0,1.6.91,2.16,2.16,0,0,0,1.43-.53l.77,1a3.86,3.86,0,0,1-5-.36,4.2,4.2,0,0,1-1-2.92,5.06,5.06,0,0,1,.57-2.53,3.58,3.58,0,0,1,3.19-1.88,3.48,3.48,0,0,1,2.11.64Z"/><path d="M238.18,44.24v8.14h-1.75V44.24Z"/><path d="M243.62,44.22l2.63,8.16h-1.8l-.59-1.93h-2.45l-.59,1.93h-1.75l2.74-8.16Zm-.17,4.87s-.27-.85-.45-1.64c-.09-.37-.34-1.44-.34-1.44s-.24,1-.4,1.57-.26,1-.44,1.51Z"/><path d="M248.83,44.24V49.6a2.28,2.28,0,0,0,.14,1,1.2,1.2,0,0,0,1.14.56c.74,0,1.2-.35,1.27-1a3.94,3.94,0,0,0,0-.72V44.24h1.7v5.49A3.19,3.19,0,0,1,253,51c-.21.65-1,1.54-2.83,1.54a3.05,3.05,0,0,1-2.68-1.09,2.42,2.42,0,0,1-.36-1.54V44.24Z"/><path d="M256.42,44.24l1.13,2.19,1.14-2.19h2l-2.17,3.68,2.59,4.46h-2l-1.5-2.86-1.49,2.86H254L256.63,48l-2.26-3.79Z"/><path d="M125.93,65.35a3.09,3.09,0,0,1-2.71,1.09h-2V58.37h1.88a3.26,3.26,0,0,1,3,1.33,5.43,5.43,0,0,1-.17,5.65ZM125,60a1.86,1.86,0,0,0-1.7-.71h-.91v6.24h.89a1.89,1.89,0,0,0,1.88-.9,4.33,4.33,0,0,0,.44-2.06A4,4,0,0,0,125,60Z"/><path d="M128.72,66.44V58.37h4.39l-.15.92h-3.1v2.46h2.6v1h-2.59v2.76h3.37v1Z"/><path d="M136.83,66.59a5,5,0,0,1-2.6-.72l.45-.86a4,4,0,0,0,2.18.66c1,0,1.74-.53,1.74-1.4,0-.66-.43-1.11-1.33-1.37l-.85-.25c-1.21-.35-1.91-.94-1.91-2.08a2.4,2.4,0,0,1,2.68-2.35,4.27,4.27,0,0,1,2.47.77l-.51.79a3.44,3.44,0,0,0-1.92-.63c-.9,0-1.46.47-1.46,1.22,0,.57.33.9,1.19,1.16l.95.28a2.37,2.37,0,0,1,2,2.27C139.88,65.21,139,66.59,136.83,66.59Z"/><path class="cls-1" d="M144.13,58.27h2.14a4,4,0,0,1,2.26.4,2.29,2.29,0,0,1,1.17,2.11,2.53,2.53,0,0,1-1.4,2.39,3.48,3.48,0,0,1-1.63.27h-.9v3h-1.64Zm1.64,1.32V62.1h.85c.67,0,.87-.08,1.09-.42a1.54,1.54,0,0,0,.2-.87,1.07,1.07,0,0,0-1.1-1.22Z"/><path class="cls-1" d="M150.88,58.28l3,0a2.25,2.25,0,0,1,2.39,2.38,2.09,2.09,0,0,1-1.82,2.25,1.56,1.56,0,0,1,.34.34c.47.59,2,3.17,2,3.17h-1.94l-.76-1.34c-.8-1.46-1.06-1.85-1.34-2a.62.62,0,0,0-.26-.07v3.4h-1.61Zm1.62,1.33v2.2H153c.7,0,1-.07,1.23-.27a1.11,1.11,0,0,0,.32-.82,1,1,0,0,0-.59-1,3,3,0,0,0-.93-.11Z"/><path class="cls-1" d="M157.76,58.3h4.63l-.21,1.33H159.4v1.89h2.33v1.33h-2.31V65h3.08v1.41h-4.74Z"/><path class="cls-1" d="M164.16,58.3h2.12l1.07,4.07c.15.59.21.82.28,1.24.08-.42.16-.79.29-1.27l1.1-4h2.15l.72,8.14h-1.61L170,62.09c0-.52-.07-.87-.07-1.3a11.41,11.41,0,0,1-.29,1.19l-1.29,4.46h-1.44l-1.16-4.28c-.11-.4-.33-1.42-.33-1.42,0,.48,0,.94-.06,1.44l-.28,4.26H163.4Z"/><path class="cls-1" d="M173.29,58.3H175v8.14h-1.71Z"/><path class="cls-1" d="M176.72,58.3h4.64l-.21,1.33h-2.78v1.89h2.33v1.33h-2.31V65h3.08v1.41h-4.75Zm3.78-1.13L180,58l-2.63-1.17.68-1.22Z"/><path class="cls-1" d="M182.63,58.28l3,0a2.25,2.25,0,0,1,2.39,2.38,2.09,2.09,0,0,1-1.82,2.25,1.37,1.37,0,0,1,.34.34c.47.59,2,3.17,2,3.17H186.6c-.32-.54-.45-.77-.76-1.34-.81-1.46-1.07-1.85-1.35-2a.58.58,0,0,0-.26-.07v3.4h-1.6Zm1.61,1.33v2.2h.55c.7,0,1-.07,1.23-.27a1.11,1.11,0,0,0,.32-.82,1,1,0,0,0-.59-1,3,3,0,0,0-.92-.11Z"/><path class="cls-1" d="M189.5,58.3h4.64l-.21,1.33h-2.79v1.89h2.33v1.33h-2.31V65h3.08v1.41H189.5Z"/><path class="cls-1" d="M200.8,58.87,200,60a3.48,3.48,0,0,0-1.9-.62,1,1,0,0,0-1.14.94c0,.42.23.63.91.82l1,.27a2.44,2.44,0,0,1,2.06,2.42c0,1.65-1.33,2.74-3.36,2.74a5.81,5.81,0,0,1-2.78-.74l.61-1.27a4.6,4.6,0,0,0,2.24.65c.94,0,1.43-.38,1.43-1.11,0-.53-.34-.87-1.07-1l-.9-.25a2.44,2.44,0,0,1-1.6-1,2.29,2.29,0,0,1-.34-1.24,2.61,2.61,0,0,1,2.91-2.52A4.73,4.73,0,0,1,200.8,58.87Z"/><path class="cls-1" d="M206.33,58.3h1.81l1.56,3.25a15.25,15.25,0,0,1,.89,2.31c-.06-.63-.12-1.68-.13-2.24l0-3.32H212v8.14h-1.71l-1.39-3.12c-.45-1-.95-2.17-1.1-2.67.06.67.07,1.63.08,2.31l0,3.48h-1.58Z"/><path class="cls-1" d="M215.42,58.27h1.77l2.57,8.17H218l-.57-1.94H215l-.58,1.94h-1.71Zm0,4.87H217s-.27-.85-.45-1.64l-.32-1.44-.39,1.57C215.72,62.22,215.61,62.61,215.44,63.14Z"/><path class="cls-1" d="M219.78,58.3h5.87l-.27,1.35h-1.95v6.79h-1.66V59.65h-2Z"/><path class="cls-1" d="M226.5,58.3h1.71v8.14H226.5Z"/><path class="cls-1" d="M233,58.19c2.16,0,3.5,1.58,3.5,4.13a4.16,4.16,0,0,1-1.82,3.87,3.08,3.08,0,0,1-1.62.37,3,3,0,0,1-2.65-1.14,4.84,4.84,0,0,1-.94-3,4.15,4.15,0,0,1,1.84-3.8A3.6,3.6,0,0,1,233,58.19Zm0,1.27a1.4,1.4,0,0,0-1.26.71,4.75,4.75,0,0,0-.41,2.22c0,1.41.24,2.28.72,2.64a1.62,1.62,0,0,0,1,.28c1.13,0,1.61-.87,1.61-2.94a6.48,6.48,0,0,0-.21-1.88A1.47,1.47,0,0,0,233,59.46Z"/><path class="cls-1" d="M237.79,58.3h1.81l1.56,3.25a15.25,15.25,0,0,1,.89,2.31c-.06-.63-.12-1.68-.13-2.24l0-3.32h1.56v8.14h-1.72l-1.39-3.12c-.44-1-1-2.17-1.1-2.67.06.67.07,1.63.08,2.31l.05,3.48h-1.58Z"/><path class="cls-1" d="M250.49,58.87,249.72,60a3.48,3.48,0,0,0-1.9-.62,1,1,0,0,0-1.13.94c0,.42.22.63.9.82l1,.27a2.43,2.43,0,0,1,2.06,2.42c0,1.65-1.33,2.74-3.36,2.74a5.8,5.8,0,0,1-2.77-.74l.61-1.27a4.56,4.56,0,0,0,2.23.65c.94,0,1.43-.38,1.43-1.11,0-.53-.34-.87-1.06-1l-.91-.25a2.47,2.47,0,0,1-1.6-1,2.38,2.38,0,0,1-.34-1.24c0-1.49,1.19-2.52,2.92-2.52A4.72,4.72,0,0,1,250.49,58.87Z"/><path d="M125.93,79.4a3.09,3.09,0,0,1-2.71,1.09h-2V72.42h1.88a3.26,3.26,0,0,1,3,1.33,4.62,4.62,0,0,1,.71,2.71A4.56,4.56,0,0,1,125.93,79.4ZM125,74a1.86,1.86,0,0,0-1.7-.71h-.91v6.24h.89a1.89,1.89,0,0,0,1.88-.9,4.33,4.33,0,0,0,.44-2.06A4,4,0,0,0,125,74Z"/><path d="M133.69,79.67a2.77,2.77,0,0,1-2.32,1,2.54,2.54,0,0,1-2.44-1.13,2.4,2.4,0,0,1-.26-1.44V72.42h1.14v5.21a3,3,0,0,0,.29,1.57,1.61,1.61,0,0,0,1.28.45,1.56,1.56,0,0,0,1.31-.52,2.23,2.23,0,0,0,.29-1.34V72.42h1.13V78C134.11,79,134.05,79.22,133.69,79.67Z"/><path d="M145.72,81.83A1.41,1.41,0,0,1,145,82a3.11,3.11,0,0,1-1.5-.6,4.73,4.73,0,0,0-1.69-.75,2.84,2.84,0,0,1-2.32-1.06,4.72,4.72,0,0,1-.94-3.13,4.15,4.15,0,0,1,1.65-3.74,3.15,3.15,0,0,1,1.61-.39,3,3,0,0,1,2.54,1.25,5.07,5.07,0,0,1,.78,3A4.31,4.31,0,0,1,144,79.76a3.06,3.06,0,0,1-.56.46,7.9,7.9,0,0,1,1,.52,2,2,0,0,0,1.07.34,3.15,3.15,0,0,0,.5,0Zm-2.19-7.57a1.73,1.73,0,0,0-1.68-1.11,1.83,1.83,0,0,0-1.59.87,4.81,4.81,0,0,0-.42,2.27,5,5,0,0,0,.6,2.78,1.88,1.88,0,0,0,1.48.68,1.59,1.59,0,0,0,1.42-.72,4,4,0,0,0,.53-2.43A6.21,6.21,0,0,0,143.53,74.26Z"/><path d="M152,79.67a2.77,2.77,0,0,1-2.32,1,2.53,2.53,0,0,1-2.43-1.13,2.33,2.33,0,0,1-.26-1.44V72.42h1.13v5.21a2.91,2.91,0,0,0,.3,1.57,1.6,1.6,0,0,0,1.27.45,1.58,1.58,0,0,0,1.32-.52,2.31,2.31,0,0,0,.29-1.34V72.42h1.12V78C152.37,79,152.31,79.22,152,79.67Z"/><path d="M154.57,80.49V72.42H159l-.15.92h-3.1V75.8h2.6v1h-2.59v2.76h3.37v1ZM155.88,72l-.34-.63,2.36-1.56.53,1Z"/><path d="M164.47,80.36a5.85,5.85,0,0,1-1.28.13h-2.46V72.42h1.71a4.19,4.19,0,0,1,2.23.3,1.85,1.85,0,0,1,1.09,1.69,1.81,1.81,0,0,1-1.47,1.78,2,2,0,0,1,1.81,2.08A2.07,2.07,0,0,1,164.47,80.36Zm-.72-6.91a2.7,2.7,0,0,0-.82-.08h-1.1v2.45h1.28c.71,0,1-.12,1.19-.44a1.33,1.33,0,0,0,.24-.78A1.14,1.14,0,0,0,163.75,73.45Zm.24,3.38a4.27,4.27,0,0,0-.85-.07h-1.3v2.81h1.6a1.34,1.34,0,0,0,1.41-1.43A1.28,1.28,0,0,0,164,76.83Z"/><path d="M167.9,80.49V72.42h4.39l-.15.92H169V75.8h2.6v1H169v2.76h3.38v1Z"/><path d="M176.94,80.6a3.07,3.07,0,0,1-2.51-1.2,4.62,4.62,0,0,1-.88-2.88,5.16,5.16,0,0,1,.53-2.4,3.26,3.26,0,0,1,2.9-1.86,3.15,3.15,0,0,1,2,.64l-.55.73a2.31,2.31,0,0,0-1.43-.46,1.94,1.94,0,0,0-1.79,1.16,4.73,4.73,0,0,0-.39,2.16,4.6,4.6,0,0,0,.3,1.9,2,2,0,0,0,2,1.31,2.19,2.19,0,0,0,1.48-.5l.56.74A3.72,3.72,0,0,1,176.94,80.6Z"/><path d="M183.35,80.49V72.42h4.39l-.15.92h-3.1V75.8h2.6v1H184.5v2.76h3.37v1Z"/><path d="M194,73.35h-2.1v7.14H190.8V73.35h-2.1v-.93h5.42Z"/><path d="M203,79.4a3.12,3.12,0,0,1-2.72,1.09h-2V72.42h1.88a3.26,3.26,0,0,1,3,1.33,4.62,4.62,0,0,1,.72,2.71A4.56,4.56,0,0,1,203,79.4ZM202,74a1.86,1.86,0,0,0-1.7-.71h-.91v6.24h.89a1.91,1.91,0,0,0,1.89-.9,4.45,4.45,0,0,0,.43-2.06A4,4,0,0,0,202,74Z"/><path d="M210.72,79.67a2.77,2.77,0,0,1-2.32,1A2.54,2.54,0,0,1,206,79.49a2.42,2.42,0,0,1-.25-1.44V72.42h1.13v5.21a3,3,0,0,0,.29,1.57,1.64,1.64,0,0,0,1.28.45,1.56,1.56,0,0,0,1.31-.52,2.22,2.22,0,0,0,.3-1.34V72.42h1.12V78C211.14,79,211.08,79.22,210.72,79.67Z"/><path d="M220.12,80.49h-4V72.42h1.15v7.13h3.07Z"/><path d="M226,80.49l-.71-2.29h-2.8l-.7,2.29h-1.17l2.64-8.09h1.41l2.6,8.09Zm-2.05-7h-.07c-.11.46-1,3.35-1.11,3.74H225C224.87,76.89,224,74,223.92,73.53Z"/><path d="M232.16,80.36a5.85,5.85,0,0,1-1.28.13h-2.46V72.42h1.71a4.19,4.19,0,0,1,2.23.3,1.85,1.85,0,0,1,1.09,1.69A1.82,1.82,0,0,1,232,76.19a2,2,0,0,1,1.81,2.08A2.07,2.07,0,0,1,232.16,80.36Zm-.72-6.91a2.7,2.7,0,0,0-.82-.08h-1.1v2.45h1.28c.71,0,1-.12,1.19-.44a1.41,1.41,0,0,0,.24-.78A1.14,1.14,0,0,0,231.44,73.45Zm.24,3.38a4.34,4.34,0,0,0-.85-.07h-1.3v2.81h1.59a1.35,1.35,0,0,0,1.42-1.43A1.28,1.28,0,0,0,231.68,76.83Z"/><path d="M239.5,80.49c-.24-.46-.34-.65-.67-1.2a10.92,10.92,0,0,0-1.39-2,.94.94,0,0,0-.73-.37v3.58h-1.12V72.42h2.26a2.63,2.63,0,0,1,1.91.58,2.23,2.23,0,0,1,.71,1.67,2,2,0,0,1-2.16,2.21,3.51,3.51,0,0,1,.71.75c.16.22.41.57.68,1l1.17,1.87Zm-1-7a2.86,2.86,0,0,0-1-.15h-.84v2.81h.78a1.88,1.88,0,0,0,1.4-.38,1.52,1.52,0,0,0,.4-1.09A1.25,1.25,0,0,0,238.54,73.49Z"/><path d="M246.82,80.49l-.72-2.29h-2.8l-.7,2.29h-1.17l2.65-8.09h1.4l2.6,8.09Zm-2-7h-.07c-.12.46-1,3.35-1.12,3.74h2.28C245.71,76.89,244.87,74,244.77,73.53Z"/><path d="M254,79.4a3.09,3.09,0,0,1-2.71,1.09h-2V72.42h1.87a3.26,3.26,0,0,1,3,1.33,4.62,4.62,0,0,1,.71,2.71A4.56,4.56,0,0,1,254,79.4ZM253,74a1.86,1.86,0,0,0-1.7-.71h-.91v6.24h.89a1.92,1.92,0,0,0,1.89-.9,4.45,4.45,0,0,0,.43-2.06A4,4,0,0,0,253,74Z"/><path d="M259.66,80.62c-2.22,0-3.33-1.77-3.33-4.2,0-2.66,1.29-4.14,3.27-4.14,2.38,0,3.32,2,3.32,4.22C262.92,79,261.71,80.62,259.66,80.62Zm-.06-7.47c-1.43,0-2,1.07-2,3.14s.48,3.47,2.06,3.47c1.25,0,2-.9,2-3.15S261.12,73.15,259.6,73.15Z"/><path d="M268.63,80.49c-.24-.46-.34-.65-.67-1.2a10.92,10.92,0,0,0-1.39-2,.92.92,0,0,0-.73-.37v3.58h-1.12V72.42H267a2.63,2.63,0,0,1,1.91.58,2.23,2.23,0,0,1,.71,1.67,2,2,0,0,1-2.15,2.21,3.67,3.67,0,0,1,.7.75c.16.22.41.57.68,1L270,80.49Zm-1-7a2.82,2.82,0,0,0-1-.15h-.84v2.81h.79a1.87,1.87,0,0,0,1.39-.38,1.48,1.48,0,0,0,.4-1.09A1.25,1.25,0,0,0,267.67,73.49Z"/><circle class="cls-2" cx="55.09" cy="55.09" r="55.09"/><path class="cls-1" d="M12.83,51.34a6.57,6.57,0,0,1,4.82-1.47c-3.21-.49-8.59-.67-12.56,2.51,4.83,2.25,9,1.19,12.8-.63A6.88,6.88,0,0,1,12.83,51.34Z"/><path class="cls-3" d="M15.79,56.38a8.41,8.41,0,0,1,5.72-3.66c-3.78.44-10.53,2-14.83,7.51,5.76,1,10.24-1.41,14.27-4.7A8.81,8.81,0,0,1,15.79,56.38Z"/><path class="cls-1" d="M19.13,61.62A7.72,7.72,0,0,1,22,57.48c-3.51,1.8-8.3,5.16-10.46,10.81,6.14-.77,9.79-4.78,12.76-9.44A8.7,8.7,0,0,1,19.13,61.62Z"/><path class="cls-4" d="M25.59,64A6,6,0,0,1,25,60.69c-1.14,2.62-2.25,6.59-.89,10.49,2.91-3.11,3.31-6.63,3-10.21A7.13,7.13,0,0,1,25.59,64Z"/><path class="cls-1" d="M97.5,52.13a6.57,6.57,0,0,0-4.82-1.47c3.21-.49,8.59-.67,12.56,2.51-4.83,2.25-9,1.19-12.8-.64A6.83,6.83,0,0,0,97.5,52.13Z"/><path class="cls-3" d="M94.54,58a8.41,8.41,0,0,0-5.72-3.66c3.78.44,10.53,2,14.83,7.51-5.76,1-10.24-1.41-14.27-4.7A8.81,8.81,0,0,0,94.54,58Z"/><path class="cls-1" d="M91.2,62.41a7.78,7.78,0,0,0-2.84-4.14c3.51,1.8,8.29,5.16,10.45,10.81-6.13-.77-9.78-4.78-12.75-9.44A8.67,8.67,0,0,0,91.2,62.41Z"/><path class="cls-4" d="M84.74,64a6.11,6.11,0,0,0,.56-3.31c1.14,2.62,2.24,6.59.89,10.49-2.91-3.11-3.31-6.63-3-10.21A7,7,0,0,0,84.74,64Z"/><path class="cls-3" d="M43,77.45A7.91,7.91,0,0,1,45.78,72c-3.14,2.37-7.83,6.88-8.43,13,6-2.29,8.6-6.77,10.27-11.64A8.35,8.35,0,0,1,43,77.45Z"/><path class="cls-3" d="M65.38,72.2A8.27,8.27,0,0,1,67,78.13a7.91,7.91,0,0,1-3.63-4.89c.74,3.86,2.73,10.06,8,13.31C71.91,80.12,69,75.85,65.38,72.2Z"/><path class="cls-1" d="M53,74.61a10.65,10.65,0,0,1-2.67,5.75,10.2,10.2,0,0,1,.24-8.23C48.41,76.21,45.37,84,48,92.09,52.88,87,53.52,80.88,53,74.61Z"/><path d="M60.33,72.5a10.56,10.56,0,0,1-.72,7,9.31,9.31,0,0,1-2.22-5.66c-.59,4.73-.49,11.82,3.69,17.83C64.5,85,63,78.65,60.33,72.5Z"/><path d="M3.87,70.37a53.52,53.52,0,1,1,102.46.41l-1.49-.52A51.94,51.94,0,1,0,5.38,69.9Z"/><path class="cls-1" d="M100.54,47.84a46,46,0,0,0-90.49-1.53L25.3,43.15,45.89,53l3.58-1.28L55.16,46l2.66,4.87L64,50l15.9-6.18L91.75,48Z"/><path class="cls-3" d="M99.77,48a45.17,45.17,0,0,0-88.95-1.5l-1.55-.3a46.75,46.75,0,0,1,92.06,1.56Z"/><path class="cls-2" d="M89,47.44a34.71,34.71,0,0,0-66.73-3.51l-.75-.26a35.5,35.5,0,0,1,68.25,3.59Z"/><path class="cls-2" d="M42.72,51.5,42,51.28a13.74,13.74,0,0,1,25.46-2.4l-.71.35a12.94,12.94,0,0,0-24,2.27Z"/><path class="cls-2" d="M39.83,50.3l-.75-.24a16.84,16.84,0,0,1,31.33-2.14l-.71.33a16.06,16.06,0,0,0-29.87,2Z"/><path class="cls-2" d="M37,48.9l-.75-.25A20,20,0,0,1,73.13,46.4l-.71.34A19.16,19.16,0,0,0,37,48.9Z"/><path class="cls-2" d="M34.29,47.3,33.54,47a23.07,23.07,0,0,1,42.38-2l-.71.34A22.28,22.28,0,0,0,34.29,47.3Z"/><path class="cls-2" d="M31.53,45.8l-.73-.29A26.17,26.17,0,0,1,78.88,44l-.71.34A25.39,25.39,0,0,0,31.53,45.8Z"/><path class="cls-2" d="M81.76,44.86a28.49,28.49,0,0,0-53-.6l-.73-.3a29.29,29.29,0,0,1,54.43.61Z"/><path class="cls-2" d="M85.53,46.33a31.61,31.61,0,0,0-59.65-3.16l-.73-.3a32.4,32.4,0,0,1,61.14,3.24Z"/><path class="cls-2" d="M92.29,47.88A37.82,37.82,0,0,0,18.71,45l-.77-.21a38.61,38.61,0,0,1,75.12,2.92Z"/><path class="cls-2" d="M95.46,47.88a40.94,40.94,0,0,0-80.24-1.79l-.77-.17a41.73,41.73,0,0,1,81.79,1.82Z"/><path d="M95.49,47.37c-3.61.32-11.83-2.66-14.51-3.74s-8.83,2.86-10.42,3.53-9.16,3.32-11.4,3a2.74,2.74,0,0,1-2.28-1.59c.54-7.56,3.89-13.55,5-16l.32-.51c.69-1.13,7.18-5.49,10.48-8.19,3.66-3,3.36-3.09,3.69-3.57.05-.07-1.43.59-1.43.59-1.5.86-4,2.31-6.25,1.32A3.9,3.9,0,0,0,64,23c-.43.3-2.83,2.09-5.26,6.59-2.73,5.06-5.89,12-8,16.86C50,48.1,49.31,49.78,48.84,51A3.22,3.22,0,0,1,46,52.2c-1.49,0-11.14-5.34-13.19-6.43s-6.3-3.17-7-3.15c-2.39.05-10,2.29-10,2.29-5.2,1.16-4,.9-10.06,1.11,3.23.66,4.64,1.89,10.08.51,0,0,7.68-2.77,10.08-2.82.73,0,5,2.6,7,3.68s11.69,6.08,13.19,6a4.09,4.09,0,0,0,2.12-.52A11.74,11.74,0,0,0,51,50.85L55,47a6.62,6.62,0,0,0,.76,2.78,4.82,4.82,0,0,0,.68.68A8,8,0,0,0,59,51.75c2.24.36,9.61-2.8,11.21-3.47s7.74-4.61,10.42-3.53S91.9,49.3,95.5,49s9.15-1.23,9.15-1.23A55.9,55.9,0,0,0,95.49,47.37Z"/><path d="M13.77,75.81a2,2,0,0,0-.11-1.34,1.63,1.63,0,0,0-1.18-1,3.64,3.64,0,0,0-2.06.43A4.39,4.39,0,0,0,8.6,75.11a1.67,1.67,0,0,0-.19,1.77,2.07,2.07,0,0,0,1,1L8.81,79a3.28,3.28,0,0,1-1.58-1.73,3.24,3.24,0,0,1-.05-2.83,4.2,4.2,0,0,1,2.22-2,5.13,5.13,0,0,1,2.49-.51,3.41,3.41,0,0,1,2.93,2,3.33,3.33,0,0,1,.25,2.1Z"/><path d="M16.73,81.15a3.5,3.5,0,0,0-.46-1.91,1,1,0,0,0-1.37-.46c-.35.22-.42.52-.22,1.18l.28,1a2.4,2.4,0,0,1-1,3c-1.38.85-3,.3-4-1.39a5.65,5.65,0,0,1-.82-2.69l1.37-.16a4.71,4.71,0,0,0,.61,2.21c.49.78,1.06,1,1.67.61.44-.27.54-.72.33-1.43l-.26-.88a2.42,2.42,0,0,1,0-1.87,2.3,2.3,0,0,1,.86-.92,2.55,2.55,0,0,1,3.6,1.13,4.66,4.66,0,0,1,.73,2.69Z"/><path d="M20.76,86.25A3.47,3.47,0,0,0,20,84.43a1,1,0,0,0-1.42-.27c-.32.27-.34.57-.05,1.2l.41.91a2.4,2.4,0,0,1-.53,3.08c-1.24,1-2.9.71-4.18-.82A5.77,5.77,0,0,1,13.07,86l1.35-.35a4.54,4.54,0,0,0,.91,2.1c.59.71,1.19.84,1.74.38.4-.33.43-.79.12-1.46l-.38-.84A2.41,2.41,0,0,1,16.58,84a2.28,2.28,0,0,1,.72-1,2.57,2.57,0,0,1,3.74.61,4.71,4.71,0,0,1,1.08,2.57Z"/><path d="M25.46,90.76a3.43,3.43,0,0,0-1-1.7A1,1,0,0,0,23,89c-.27.31-.25.61.12,1.19l.54.85a2.38,2.38,0,0,1-.1,3.11c-1.09,1.21-2.78,1.12-4.25-.22a5.75,5.75,0,0,1-1.53-2.36L19.1,91a4.5,4.5,0,0,0,1.2,2c.68.62,1.29.66,1.77.14s.32-.85-.08-1.47l-.49-.78a2.37,2.37,0,0,1-.49-1.8,2.34,2.34,0,0,1,.57-1.13,2.57,2.57,0,0,1,3.78.09,4.71,4.71,0,0,1,1.43,2.39Z"/><path d="M29.84,91.88c1.12.76,1.38,1.11,1.61,1.57a2.21,2.21,0,0,1-.21,2.35A2.44,2.44,0,0,1,28.79,97a3.4,3.4,0,0,1-1.47-.68l-.73-.5-1.65,2.44-1.33-.91,4.49-6.61Zm-2.51,2.81.69.47c.54.37.75.41,1.12.26a1.5,1.5,0,0,0,.63-.57,1,1,0,0,0-.23-1.6l-.84-.58Z"/><path d="M34.84,94.87v3.54a14.94,14.94,0,0,1-.2,2.42c.22-.58.61-1.53.84-2l1.39-3,1.38.66-3.47,7.19L33.26,103l.09-3.34c0-1.1.09-2.32.17-2.83-.23.61-.63,1.47-.91,2.07L31.17,102l-1.4-.68,3.47-7.19Z"/><path d="M48.18,99.17l-1,6.58,2.83.43-.49,1.28-4.17-.63,1.2-7.9Z"/><path d="M56.46,104.92a1.38,1.38,0,1,1-2.75,0,1.38,1.38,0,0,1,1.36-1.4A1.37,1.37,0,0,1,56.46,104.92Z"/><path d="M64.39,98.81v1.32l-2.51.38.27,1.8,2-.3.19,1.29-2,.31.53,3.51-1.59.24-1.2-7.9Z"/><path d="M66.8,98.17l2.37,2.63a15.71,15.71,0,0,1,1.48,1.92c-.23-.58-.58-1.54-.74-2.07l-1-3.12,1.46-.43,2.27,7.66-1.61.47-2.18-2.54c-.71-.83-1.49-1.77-1.78-2.21.24.62.52,1.52.72,2.15l1,3.26-1.48.44-2.27-7.66Z"/><path d="M79.57,92.4l3.68,5.54,2.38-1.58.5,1.27L82.62,100,78.2,93.31Z"/><path d="M83.65,89.39l2,2.33,1.72-1.52-2-2.33L86.6,86.8l5.27,6-1.22,1.07L88.3,91.2l-1.73,1.51,2.35,2.68-1.2,1-5.27-6Z"/><path d="M91.75,83.5a3.51,3.51,0,0,0-1.67,1,1,1,0,0,0,0,1.45c.32.27.62.23,1.19-.16l.82-.56a2.42,2.42,0,0,1,3.13,0c1.23,1.05,1.2,2.74-.08,4.25a5.74,5.74,0,0,1-2.32,1.62l-.57-1.27a4.51,4.51,0,0,0,1.91-1.26c.6-.7.62-1.31.07-1.77-.39-.34-.85-.29-1.46.13l-.76.52a2.37,2.37,0,0,1-1.78.54,2.25,2.25,0,0,1-1.15-.53,2.56,2.56,0,0,1,0-3.78,4.63,4.63,0,0,1,2.33-1.51Z"/><path d="M95.37,78.09a3.47,3.47,0,0,0-1.51,1.25A1,1,0,0,0,94,80.78c.35.22.64.14,1.15-.32l.74-.68A2.4,2.4,0,0,1,99,79.34c1.37.86,1.58,2.54.52,4.22a5.78,5.78,0,0,1-2.07,1.92l-.74-1.17a4.62,4.62,0,0,0,1.72-1.52c.49-.78.42-1.39-.18-1.76-.44-.28-.89-.17-1.43.33l-.68.62a2.43,2.43,0,0,1-1.69.79,2.35,2.35,0,0,1-1.21-.37,2.56,2.56,0,0,1-.56-3.74,4.69,4.69,0,0,1,2.1-1.82Z"/><path d="M98.05,72.18a2,2,0,0,0-.93,1,1.63,1.63,0,0,0,.06,1.52,3.65,3.65,0,0,0,1.69,1.26,4.49,4.49,0,0,0,2.09.58,1.68,1.68,0,0,0,1.45-1A2.1,2.1,0,0,0,102.5,74l1.23-.25A3.66,3.66,0,0,1,101.41,78a4.13,4.13,0,0,1-3-.3,5,5,0,0,1-2-1.52,3.4,3.4,0,0,1-.43-3.54,3.23,3.23,0,0,1,1.42-1.58Z"/><path d="M44.52,102.73c.79-2.38,0-4.27-2-4.94a3.68,3.68,0,0,0-1.69-.16,4.08,4.08,0,0,0-2.9,3,4.76,4.76,0,0,0-.07,3.11A3,3,0,0,0,40,105.6a3.17,3.17,0,0,0,1.64.16,2.8,2.8,0,0,0,.62-.2,1.91,1.91,0,0,0,.66.48,1.61,1.61,0,0,0,.71.15l.79-.8a5.88,5.88,0,0,1-.68-.22,1.59,1.59,0,0,1-.46-.3A5.41,5.41,0,0,0,44.52,102.73Zm-4.19,1.69a1.54,1.54,0,0,1-.81-.57c-.35-.48-.3-1.37.14-2.68a4.64,4.64,0,0,1,1.07-1.94,1.4,1.4,0,0,1,1.4-.27,1.44,1.44,0,0,1,1,1.4,6.39,6.39,0,0,1-.39,1.83,7.1,7.1,0,0,1-.64,1.44l-.58-.5-.72.81c.21.19.37.33.5.46A1.32,1.32,0,0,1,40.33,104.42Z"/><path d="M80.37,99.64a1.69,1.69,0,0,1-.54.12,5.32,5.32,0,0,0-.62-2.4c-1.1-2.25-3-3.06-4.87-2.12A3.42,3.42,0,0,0,73,96.32a4,4,0,0,0,0,4.15,4.72,4.72,0,0,0,2.13,2.25,2.93,2.93,0,0,0,2.83-.14,3.09,3.09,0,0,0,1.27-1,3.23,3.23,0,0,0,.31-.58,2.08,2.08,0,0,0,.8-.12,1.43,1.43,0,0,0,.61-.4V99.32A5.54,5.54,0,0,1,80.37,99.64Zm-3,1.86a1.57,1.57,0,0,1-1,.18c-.59-.1-1.17-.77-1.78-2a4.59,4.59,0,0,1-.61-2.13,1.39,1.39,0,0,1,.81-1.18,1.42,1.42,0,0,1,1.7.29,6.28,6.28,0,0,1,1,1.57,6.47,6.47,0,0,1,.56,1.47l-.76.06.06,1.08.68,0A1.31,1.31,0,0,1,77.42,101.5Z"/></g></g></svg>